<svg width="396" height="84" viewBox="0 0 396 84" fill="none" xmlns="http://www.w3.org/2000/svg">
    <path d="M166.685 0C158.567 0 150.632 2.42493 143.883 6.96879C137.134 11.5126 131.874 17.9712 128.767 25.5274C125.661 33.0835 124.848 41.398 126.432 49.4196C128.015 57.4412 131.924 64.8101 137.664 70.5933C143.404 76.3765 150.717 80.3148 158.678 81.9104C166.639 83.506 174.891 82.6871 182.39 79.5573C189.89 76.4274 196.3 71.1269 200.809 64.3265C205.319 57.5262 207.726 49.5313 207.726 41.3525C207.726 30.3852 203.402 19.8668 195.705 12.1118C188.008 4.35668 177.569 0 166.685 0ZM166.685 63.616C162.314 63.616 158.042 62.3106 154.409 59.8642C150.775 57.4179 147.943 53.9404 146.271 49.8723C144.598 45.8042 144.161 41.3282 145.013 37.0096C145.866 32.6909 147.97 28.724 151.06 25.6104C154.151 22.4969 158.088 20.3763 162.374 19.5173C166.66 18.6583 171.103 19.0988 175.14 20.7839C179.178 22.4689 182.629 25.3229 185.057 28.9841C187.485 32.6452 188.78 36.9493 188.78 41.3525C188.78 47.2571 186.453 52.9194 182.309 57.0946C178.165 61.2698 172.545 63.616 166.685 63.616Z"
          fill="#FEFEFE"/>
    <path d="M259.189 0C251.072 0 243.137 2.42493 236.387 6.96879C229.638 11.5126 224.378 17.9712 221.271 25.5274C218.165 33.0835 217.352 41.398 218.936 49.4196C220.52 57.4412 224.428 64.8101 230.168 70.5933C235.908 76.3765 243.221 80.3148 251.182 81.9104C259.143 83.506 267.395 82.6871 274.895 79.5573C282.394 76.4274 288.804 71.1269 293.314 64.3265C297.823 57.5262 300.23 49.5313 300.23 41.3525C300.23 30.3852 295.906 19.8668 288.209 12.1118C280.513 4.35668 270.074 0 259.189 0ZM259.189 63.616C254.819 63.616 250.547 62.3106 246.913 59.8642C243.279 57.4179 240.447 53.9404 238.775 49.8723C237.102 45.8042 236.665 41.3282 237.517 37.0096C238.37 32.6909 240.474 28.724 243.565 25.6104C246.655 22.4969 250.592 20.3763 254.878 19.5173C259.164 18.6583 263.607 19.0988 267.645 20.7839C271.682 22.4689 275.133 25.3229 277.561 28.9841C279.989 32.6452 281.285 36.9493 281.285 41.3525C281.285 47.2571 278.957 52.9194 274.813 57.0946C270.669 61.2698 265.049 63.616 259.189 63.616Z"
          fill="#FEFEFE"/>
    <path d="M122.239 0.683594H102.248L93.0288 30.9948H112.728L122.239 0.683594Z" fill="#FEFEFE"/>
    <path d="M76.5315 29.5281L86.4299 52.8971L90.0205 40.9682H109.623L98.5602 77.2438C97.6868 80.0794 95.0667 82.0349 92.0584 82.0349H80.8984C78.1812 82.0349 75.6581 80.3727 74.5906 77.7327L62.3633 47.6171L50.2329 77.6349C49.2625 80.1771 46.7393 81.9371 43.9251 81.9371H32.6681C29.6598 81.9371 27.0396 79.9816 26.1662 77.146L2.77893 0.683594H22.4786L38.0055 52.8971L48.2921 29.3325C50.524 23.4659 56.1525 19.6525 62.3633 19.6525C68.6711 19.6525 74.2995 23.5636 76.5315 29.5281Z"
          fill="#FEFEFE"/>
    <path d="M343.611 19.2661L329.522 0.700195H304.989L331.345 35.4482L343.611 19.2661Z" fill="#62CF7F"/>
    <path d="M392.965 0.700195H368.421L306.737 82.0402H331.27L392.965 0.700195Z" fill="#62CF7F"/>
    <path d="M370.169 82.0402L356.091 63.4743L368.357 47.2922L394.713 82.0402H370.169Z" fill="#62CF7F"/>
</svg>
